{"title":"Adventureland.2009.1080p.BRRip.x264.AC3-Kay","uid":11702649,"size":3122713623,"categoryP":"video","categoryS":"hd___movies","magnet":"?xt=urn:btih:0b0b149214c664a129b73a0e317c314878a050a3&amp;dn=Adventureland.2009.1080p.BRRip.x264.AC3-Kay&amp;tr=udp%3A%2F%2Ftracker.openbittorrent.com%3A80&amp;tr=udp%3A%2F%2Fopen.demonii.com%3A1337&amp;tr=udp%3A%2F%2Ftracker.coppersurfer.tk%3A6969&amp;tr=udp%3A%2F%2Fexodus.desync.com%3A6969","seeders":0,"leechers":1,"uploader":"thegame2012","files":6,"time":1423981625,"description":"Adventureland.2009.1080p.BRRip.x264.AC3-Kay\n\n &lt;a href=&quot;\nhttp://s24.postimg.org/3kvcd0y9x/advanturelandbd2d.jpg&quot; rel=&quot;nofollow&quot; target=&quot;_NEW&quot;&gt;\nhttp://s24.postimg.org/3kvcd0y9x/advanturelandbd2d.jpg&lt;/a&gt;\n &lt;a href=&quot;\nhttp://www.imdb.com/title/tt1091722/?ref_=nv_sr_1&quot; rel=&quot;nofollow&quot; target=&quot;_NEW&quot;&gt;\nhttp://www.imdb.com/title/tt1091722/?ref_=nv_sr_1&lt;/a&gt;\n\n\nGeneral\nFormat                           : Matroska\nFile size                        : 2.91 GiB\nDuration                         : 1h 46mn\nOverall bit rate                 : 3 893 Kbps\n\n\nVideo\nID                               : 1\nFormat                           : AVC\nFormat/Info                      : Advanced Video Codec\nFormat profile                   : &lt;a class=&quot;__cf_email__&quot; href=&quot;/cdn-cgi/l/email-protection&quot; data-cfemail=&quot;125a7b757a525e273c22&quot;&gt;[email&amp;#160;protected]&lt;/a&gt;&lt;script cf-hash='f9e31' type=&quot;text/javascript&quot;&gt;\n/* &lt;![CDATA[ */!function(){try{var t=&quot;currentScript&quot;in document?document.currentScript:function(){for(var t=document.getElementsByTagName(&quot;script&quot;),e=t.length;e--;)if(t[e].getAttribute(&quot;cf-hash&quot;))return t[e]}();if(t&amp;&amp;t.previousSibling){var e,r,n,i,c=t.previousSibling,a=c.getAttribute(&quot;data-cfemail&quot;);if(a){for(e=&quot;&quot;,r=parseInt(a.substr(0,2),16),n=2;a.length-n;n+=2)i=parseInt(a.substr(n,2),16)^r,e+=String.fromCharCode(i);e=document.createTextNode(e),c.parentNode.replaceChild(e,c)}}}catch(u){}}();/* ]]&gt; */&lt;/script&gt;\nFormat settings, CABAC           : Yes\nFormat settings, ReFrames        : 5 frames\nDuration                         : 1h 46mn\nBit rate                         : 3 176 Kbps\nWidth                            : 1 920 pixels\nHeight                           : 1 040 pixels\nDisplay aspect ratio             : 1.853\nFrame rate                       : 23.976 fps\nResolution                       : 8 bits\nColorimetry                      : 4:2:0\nScan type                        : Progressive\nBits/(Pixel*Frame)               : 0.066\nStream size                      : 2.37 GiB (81%)\nWriting library                  : x264 core 133 r2334 a3ac64b\n\n\nAudio #1\nID                               : 2\nFormat                           : AC-3\nFormat/Info                      : Audio Coding 3\nCodec ID                         : A_AC3\nDuration                         : 1h 46mn\nBit rate mode                    : Constant\nBit rate                         : 448 Kbps\nChannel(s)                       : 6 channels\nChannel positions                : Front: L C R, Surround: L R, LFE\nSampling rate                    : 48.0 KHz\nStream size                      : 343 MiB (12%)\nLanguage                         : English\n\nAudio #2 (Commentary with Writer/Director Greg Mottola and Actor Jesse Eisenberg)\nID                               : 3\nFormat                           : AC-3\nFormat/Info                      : Audio Coding 3\nCodec ID                         : A_AC3\nDuration                         : 1h 46mn\nBit rate mode                    : Constant\nBit rate                         : 192 Kbps\nChannel(s)                       : 2 channels\nChannel positions                : L R\nSampling rate                    : 48.0 KHz\nStream size                      : 147 MiB (5%)\nLanguage                         : English\n\nScreencaps &lt;a href=&quot;\nhttp://s17.postimg.org/jbfdb9hbj/Adventureland_2009_1080p_BRRip_x264_AC3_Kay_mkv.jpg&quot; rel=&quot;nofollow&quot; target=&quot;_NEW&quot;&gt;\nhttp://s17.postimg.org/jbfdb9hbj/Adventureland_2009_1080p_BRRip_x264_AC3_Kay_mkv.jpg&lt;/a&gt; &lt;a href=&quot;\nhttp://s17.postimg.org/6ir9bc5pr/Adventureland_2009_1080p_BRRip_x264_AC3_Kay_mkv.jpg&quot; rel=&quot;nofollow&quot; target=&quot;_NEW&quot;&gt;\nhttp://s17.postimg.org/6ir9bc5pr/Adventureland_2009_1080p_BRRip_x264_AC3_Kay_mkv.jpg&lt;/a&gt; &lt;a href=&quot;\nhttp://s17.postimg.org/405kanjzj/Adventureland_2009_1080p_BRRip_x264_AC3_Kay_mkv.jpg&quot; rel=&quot;nofollow&quot; target=&quot;_NEW&quot;&gt;\nhttp://s17.postimg.org/405kanjzj/Adventureland_2009_1080p_BRRip_x264_AC3_Kay_mkv.jpg&lt;/a&gt; &lt;a href=&quot;\nhttp://s17.postimg.org/5dx75yj8v/Adventureland_2009_1080p_BRRip_x264_AC3_Kay_mkv.jpg&quot; rel=&quot;nofollow&quot; target=&quot;_NEW&quot;&gt;\nhttp://s17.postimg.org/5dx75yj8v/Adventureland_2009_1080p_BRRip_x264_AC3_Kay_mkv.jpg&lt;/a&gt;\n\n\n\n\nThanks for downloading, please remember to seed if you can!\n\n-Kay","torrent":{"xt":"urn:btih:0b0b149214c664a129b73a0e317c314878a050a3","amp;dn":"Adventureland.2009.1080p.BRRip.x264.AC3-Kay","amp;tr":["udp%3A%2F%2Ftracker.openbittorrent.com%3A80","udp%3A%2F%2Fopen.demonii.com%3A1337","udp%3A%2F%2Ftracker.coppersurfer.tk%3A6969","udp%3A%2F%2Fexodus.desync.com%3A6969"],"infoHash":"0b0b149214c664a129b73a0e317c314878a050a3","infoHashBuffer":{"type":"Buffer","data":[11,11,20,146,20,198,100,161,41,183,58,14,49,124,49,72,120,160,80,163]},"announce":[],"urlList":[]}}